<?xml version="1.0" standalone="no"?>
<!DOCTYPE svg PUBLIC "-//W3C//DTD SVG 20010904//EN"
 "http://www.w3.org/TR/2001/REC-SVG-20010904/DTD/svg10.dtd">
<svg version="1.0" xmlns="http://www.w3.org/2000/svg"
 width="1376.000000pt" height="1376.000000pt" viewBox="0 0 1376.000000 1376.000000"
 preserveAspectRatio="xMidYMid meet">
<metadata>
Created by potrace 1.14, written by Peter Selinger 2001-2017
</metadata>
<g transform="translate(0.000000,1376.000000) scale(0.100000,-0.100000)"
fill="#000000" stroke="none">
<path d="M3173 9664 c-68 -28 -121 -69 -148 -115 -17 -30 -19 -52 -19 -189 1
-85 3 -189 5 -230 2 -41 0 -88 -3 -104 -4 -16 -2 -38 4 -49 6 -11 13 -41 15
-66 10 -106 133 -152 307 -116 75 15 246 138 262 188 10 32 12 70 4 82 -6 9
-19 48 -26 82 -1 6 -7 27 -12 45 -18 56 -23 108 -26 251 -3 162 -10 176 -96
219 -72 35 -183 36 -267 2z"/>
<path d="M10690 9217 c-144 -39 -204 -75 -320 -192 -153 -154 -235 -281 -363
-565 -13 -30 -40 -86 -58 -125 -18 -38 -34 -72 -34 -75 0 -3 -31 -68 -69 -145
-166 -344 -218 -441 -247 -463 -38 -31 -58 -70 -62 -125 -4 -42 -95 -237 -181
-387 -14 -25 -31 -56 -38 -70 -7 -14 -32 -58 -55 -98 -24 -40 -43 -78 -43 -84
0 -27 -13 5 -16 39 -4 46 -14 185 -19 268 -2 33 -6 92 -9 130 -9 97 -16 187
-21 275 -3 41 -7 95 -10 120 -5 51 -14 148 -20 230 -11 148 -15 190 -19 245
-9 99 -17 196 -21 260 -11 142 -16 224 -20 285 -2 36 -4 65 -5 65 0 0 -9 166
-14 287 -4 91 -42 116 -171 113 -118 -3 -242 -51 -311 -120 -23 -23 -43 -52
-46 -66 -5 -26 -2 -154 7 -284 3 -44 7 -120 10 -170 2 -49 7 -119 9 -155 7
-82 16 -210 21 -275 5 -71 15 -201 20 -260 3 -27 7 -81 10 -118 3 -38 7 -92
10 -120 2 -29 7 -88 10 -132 3 -44 8 -102 11 -130 4 -47 9 -116 19 -265 2 -36
7 -105 10 -155 14 -179 26 -475 29 -659 1 -88 -2 -120 -11 -123 -15 -5 -18
-63 -4 -63 13 0 19 -32 11 -55 -4 -11 -4 -27 0 -35 4 -8 4 -40 1 -71 -4 -31
-4 -68 0 -82 4 -14 5 -28 2 -31 -3 -3 -7 -60 -8 -128 -4 -167 -19 -317 -35
-348 -19 -37 11 -82 75 -111 57 -25 182 -20 285 13 132 41 175 91 185 213 18
221 25 386 26 599 l2 188 31 39 c112 140 238 296 247 307 21 25 167 249 215
329 27 45 52 82 56 83 10 0 178 -349 178 -371 0 -5 4 -17 10 -27 10 -17 80
-204 84 -225 2 -7 8 -25 14 -40 7 -16 12 -32 12 -36 0 -7 82 -218 100 -256 5
-11 50 -117 100 -235 86 -201 118 -283 184 -471 26 -73 56 -114 101 -137 17
-9 111 -28 125 -25 3 0 25 4 50 7 50 7 101 22 133 40 65 36 87 52 87 64 0 6 4
12 9 12 20 0 43 72 38 118 -7 72 -84 285 -186 515 -16 37 -27 67 -24 67 3 0
-1 10 -9 23 -18 27 -134 307 -183 442 -20 55 -50 134 -67 175 -50 121 -109
262 -128 305 -10 22 -26 58 -36 80 -9 22 -70 149 -136 283 -65 134 -118 247
-118 252 0 5 -5 10 -12 12 -7 3 56 142 171 374 101 203 191 387 201 409 22 49
35 78 100 230 29 66 61 134 71 151 10 17 16 34 12 37 -3 4 -1 7 5 7 7 0 12 5
12 11 0 28 103 164 190 250 53 52 97 103 97 112 0 38 -34 52 -131 53 -50 0
-107 -4 -126 -9z"/>
<path d="M5137 9054 c-1 -1 -40 -5 -87 -8 -47 -3 -96 -7 -110 -10 -24 -4 -74
-12 -150 -22 -19 -2 -43 -7 -52 -10 -10 -3 -30 -7 -45 -10 -63 -11 -238 -77
-320 -120 -187 -98 -296 -221 -338 -380 -15 -55 -21 -197 -11 -254 2 -14 8
-52 11 -85 4 -33 9 -71 11 -85 12 -85 14 -112 13 -175 -5 -240 4 -372 35 -530
8 -38 51 -109 88 -147 47 -47 149 -101 208 -112 19 -3 53 -9 75 -12 42 -7 237
-7 315 0 96 9 278 19 330 19 235 -2 364 -121 415 -383 13 -71 14 -193 1 -650
-2 -87 1 -104 47 -290 13 -52 23 -110 23 -127 -1 -18 2 -33 5 -33 9 0 2 -97
-11 -135 -18 -54 -94 -116 -161 -131 -46 -10 -56 -12 -94 -18 -40 -6 -101 -13
-205 -21 -97 -8 -184 -7 -213 4 -15 6 -27 8 -27 5 0 -12 -60 28 -80 53 -70 89
-80 224 -36 493 7 47 14 124 15 171 2 82 1 88 -24 107 -23 18 -37 20 -123 17
-146 -5 -282 -50 -350 -116 l-31 -31 0 -131 c-1 -73 -3 -159 -6 -192 -19 -201
-11 -349 22 -430 18 -43 84 -113 124 -131 103 -47 156 -56 353 -59 233 -2 354
9 561 55 244 54 429 122 570 211 194 122 245 200 240 364 -3 89 -6 109 -28
195 -10 39 -18 80 -24 140 -7 52 -7 114 -4 520 1 96 -1 191 -4 210 -10 69 -24
128 -45 186 -12 33 -24 67 -27 77 -3 9 -9 17 -14 17 -5 0 -9 5 -9 11 0 25 -72
113 -140 169 -31 27 -137 77 -175 84 -17 3 -41 9 -55 12 -36 10 -286 9 -420
-1 -286 -22 -433 -2 -501 66 -27 27 -66 106 -74 149 -3 18 -8 37 -12 42 -3 5
-7 78 -9 161 -8 297 -21 493 -41 622 -20 135 10 264 84 362 52 68 218 97 446
78 202 -17 356 -102 374 -207 8 -45 8 -50 0 -110 -2 -20 -1 -41 2 -46 22 -33
116 -47 214 -30 169 28 269 75 300 141 10 20 19 67 21 105 4 89 -21 158 -78
217 -45 46 -143 105 -176 105 -10 0 -21 4 -24 9 -3 4 -34 14 -68 21 -35 6 -72
14 -83 16 -56 12 -408 27 -418 18z"/>
<path d="M6695 9029 c-27 -4 -70 -12 -95 -18 -25 -6 -53 -13 -63 -16 -36 -8
-125 -57 -147 -80 -28 -30 -32 -72 -29 -300 0 -27 0 -54 -1 -60 -1 -5 -1 -14
0 -20 1 -5 3 -57 5 -115 2 -58 6 -145 9 -195 6 -85 8 -120 21 -325 3 -47 7
-105 10 -130 21 -229 27 -777 12 -1065 -5 -82 -10 -189 -12 -237 -2 -48 -6
-92 -10 -97 -3 -5 -1 -12 4 -16 6 -3 7 -15 3 -28 -13 -36 -4 -364 13 -467 2
-14 6 -50 10 -80 4 -30 11 -71 15 -90 5 -19 12 -48 15 -65 10 -47 14 -262 5
-298 -14 -64 10 -85 100 -88 51 -1 139 8 190 21 25 6 54 13 65 15 34 8 126 56
144 77 38 40 55 208 37 368 -6 61 -9 78 -21 140 -7 32 -13 67 -20 110 -3 19
-10 60 -16 90 -23 128 -30 466 -15 685 5 61 9 116 9 123 0 6 3 12 6 13 3 0 15
2 26 5 126 25 763 19 790 -7 3 -3 7 -39 10 -80 13 -206 19 -279 31 -399 2 -25
7 -76 10 -115 38 -517 37 -694 -7 -890 -24 -109 -8 -151 71 -191 37 -19 58
-22 130 -19 47 1 95 5 108 8 49 12 130 56 156 83 27 30 60 118 71 195 4 24 8
46 10 49 2 3 6 30 10 60 3 30 10 81 14 112 8 63 6 353 -3 433 -4 28 -8 84 -11
125 -3 41 -7 95 -10 120 -3 25 -7 79 -10 120 -3 41 -8 93 -11 115 -2 22 -7 74
-10 115 -3 41 -7 91 -9 110 -8 98 -17 235 -20 315 -3 94 -13 275 -20 360 -2
28 -6 88 -10 135 -4 47 -8 105 -10 130 -2 25 -6 70 -9 100 -5 49 -10 114 -22
270 -8 113 -16 268 -20 410 -2 85 -7 165 -9 177 -3 13 -6 26 -6 30 -1 16 -45
56 -84 76 -32 16 -57 20 -125 20 -130 -1 -239 -50 -289 -128 -27 -42 -27 -47
-25 -172 3 -185 25 -566 39 -688 2 -22 7 -78 10 -125 4 -47 8 -105 11 -130 3
-25 7 -72 9 -105 12 -177 17 -254 20 -291 2 -23 0 -45 -4 -50 -3 -5 -60 -9
-126 -10 -66 0 -178 -4 -250 -7 -71 -4 -193 -10 -270 -13 l-140 -6 -1 223 c0
204 -4 322 -19 554 -3 44 -7 109 -9 145 -2 36 -7 106 -11 155 -13 173 -15 232
-20 505 -3 151 -5 283 -5 292 0 29 -87 41 -195 27z"/>
<path d="M12867 8954 c-1 -1 -54 -4 -117 -8 -109 -6 -130 -8 -225 -21 -144
-19 -375 -65 -425 -85 -14 -5 -36 -12 -50 -14 -25 -4 -142 -41 -170 -53 -8 -3
-20 -7 -26 -8 -7 -2 -40 -16 -75 -31 -227 -102 -417 -307 -501 -544 -18 -50
-47 -176 -53 -230 -25 -211 -24 -396 0 -640 3 -25 7 -65 10 -90 2 -25 6 -56 9
-70 2 -14 7 -59 10 -100 3 -41 8 -86 11 -99 5 -28 15 -181 21 -341 2 -63 5
-386 5 -717 l0 -601 27 -8 c118 -33 420 44 482 123 l21 28 -3 737 -3 738 45
14 c44 13 299 15 360 3 27 -6 110 -18 150 -23 14 -2 39 -6 55 -9 59 -13 269
-7 380 11 17 3 51 7 78 10 l47 6 1 -149 c1 -157 2 -215 14 -518 12 -303 12
-315 21 -425 9 -119 9 -256 1 -315 -7 -45 -42 -131 -57 -140 -22 -14 -8 -34
28 -41 139 -27 316 9 429 87 76 53 89 70 115 154 20 60 23 92 23 220 0 83 -4
188 -9 235 -10 108 -15 219 -22 549 -3 146 -7 281 -8 300 -5 50 7 67 52 74 55
9 155 62 196 105 70 72 55 156 -37 200 -37 18 -66 23 -137 24 l-90 1 -1 41 c0
54 -6 237 -14 411 -3 77 -7 192 -10 255 -2 63 -4 115 -5 115 0 0 -3 41 -5 90
-20 427 -43 521 -151 630 -59 60 -128 91 -244 111 -29 5 -149 11 -153 8z
m-272 -207 c74 -7 160 -43 191 -80 31 -37 60 -100 68 -149 3 -18 8 -44 12 -58
3 -14 8 -169 10 -345 1 -176 5 -351 8 -390 3 -38 8 -108 11 -155 3 -47 8 -121
11 -165 9 -127 10 -175 4 -176 -3 0 -16 -3 -30 -6 -44 -8 -231 -8 -345 2 -184
15 -696 8 -725 -10 -17 -11 -36 7 -37 33 0 24 -5 85 -17 212 -17 188 -20 264
-20 400 0 159 10 294 24 320 5 8 8 17 7 20 0 5 14 79 18 90 4 12 22 58 44 115
17 42 91 155 102 155 5 0 9 5 9 10 0 14 46 55 95 84 58 35 167 61 300 71 22 2
74 10 115 18 41 7 80 13 85 11 6 -1 33 -5 60 -7z"/>
<path d="M2367 8924 c-2 -2 -31 -7 -63 -9 -130 -9 -258 -61 -322 -129 -62 -67
-69 -87 -47 -155 4 -15 -15 -125 -41 -230 -2 -9 -13 -54 -25 -101 -11 -47 -22
-93 -24 -102 -6 -28 -95 -351 -105 -378 -4 -14 -23 -72 -40 -130 -39 -129
-147 -454 -165 -495 -13 -30 -49 -126 -51 -135 0 -3 -6 -18 -12 -33 -7 -16
-22 -58 -35 -93 -12 -35 -25 -64 -28 -64 -7 0 -140 268 -186 375 -41 95 -157
389 -168 425 -4 14 -11 30 -15 35 -3 6 -15 33 -25 60 -9 28 -23 64 -30 80 -7
17 -31 77 -55 135 -23 58 -48 119 -55 135 -8 17 -23 54 -35 84 -11 30 -30 75
-42 100 -11 25 -27 62 -36 81 -8 19 -46 100 -84 179 -37 79 -68 157 -68 174 0
39 -52 88 -110 104 -49 13 -178 10 -225 -5 -54 -17 -129 -60 -157 -89 -38 -41
-75 -143 -106 -293 -16 -78 -7 -394 14 -461 2 -9 7 -39 9 -65 3 -27 7 -69 10
-94 5 -50 11 -126 21 -240 3 -41 7 -203 9 -360 5 -305 11 -553 20 -721 23
-469 32 -662 36 -855 1 -71 -2 -96 -16 -117 -25 -39 -30 -98 -11 -135 22 -43
87 -105 133 -128 72 -34 209 -25 307 21 47 22 103 77 117 113 19 47 8 513 -25
1182 -18 342 -26 695 -16 683 3 -5 13 -26 22 -48 35 -89 102 -244 134 -311 19
-38 34 -75 34 -81 0 -6 3 -13 7 -15 5 -1 19 -25 32 -53 13 -27 33 -62 43 -77
11 -16 16 -28 13 -28 -3 0 2 -12 13 -27 15 -23 92 -173 97 -193 1 -3 9 -21 17
-40 15 -35 30 -71 33 -80 1 -3 6 -16 12 -30 26 -61 91 -269 94 -300 1 -8 -5
-31 -14 -51 -19 -42 -13 -76 17 -105 49 -47 170 -59 275 -27 31 9 58 17 61 18
47 13 190 105 190 122 0 7 4 13 9 13 17 0 30 58 21 90 -10 35 -9 41 20 134 12
38 24 77 26 87 9 42 13 57 27 114 9 33 21 89 27 125 15 81 18 99 26 130 3 14
9 41 14 60 27 114 68 244 136 430 15 43 21 30 29 -65 3 -38 8 -110 12 -160 7
-87 8 -429 3 -910 -3 -201 2 -308 16 -380 33 -168 48 -259 46 -288 0 -9 -10
-29 -21 -43 -44 -56 -31 -128 28 -158 36 -19 145 -26 213 -14 64 12 162 57
204 95 78 71 104 143 99 287 -1 57 -5 109 -9 114 -3 5 -8 34 -12 63 -3 30 -11
62 -16 72 -5 10 -7 21 -4 24 2 3 1 16 -5 30 -23 60 -29 304 -13 538 5 72 8
243 8 380 -1 224 -5 303 -19 455 -2 25 -6 77 -10 115 -3 39 -7 90 -9 115 -14
143 -19 299 -17 485 8 612 6 658 -30 781 -26 92 -27 97 -20 109 3 6 7 19 8 30
2 11 5 30 8 42 5 23 -27 63 -52 63 -19 0 -25 1 -49 11 -12 4 -24 6 -27 3z"/>
<path d="M3430 8448 c-134 -14 -291 -71 -339 -121 -25 -27 -25 -48 -4 -277 2
-30 6 -233 8 -450 1 -217 5 -406 8 -420 3 -14 9 -56 12 -95 13 -127 15 -146
35 -265 5 -30 12 -73 15 -95 4 -22 8 -48 11 -57 16 -55 25 -191 24 -358 -3
-512 -2 -533 36 -695 9 -38 17 -115 18 -170 1 -87 -2 -105 -21 -138 -13 -21
-23 -40 -23 -43 0 -23 125 -33 240 -19 127 16 275 99 312 174 24 49 32 162 18
229 -5 20 -12 57 -15 82 -4 24 -8 47 -10 50 -4 6 -13 77 -20 150 -11 118 -17
288 -20 565 -2 265 -5 328 -21 407 -3 15 -7 39 -9 55 -2 15 -9 51 -15 78 -6
28 -11 57 -12 65 0 8 -4 33 -9 55 -25 122 -33 209 -32 335 4 323 3 586 -2 670
-12 227 -15 253 -31 271 -19 21 -68 26 -154 17z"/>
<path d="M10887 4554 c-1 -1 -74 -5 -162 -8 -88 -4 -182 -8 -210 -11 -27 -2
-104 -7 -170 -10 -202 -10 -287 -15 -360 -20 -546 -37 -1733 -54 -2750 -40
-349 5 -760 13 -760 15 0 1 -83 3 -185 5 -102 2 -266 6 -365 9 -675 22 -812
26 -1510 42 -595 14 -1641 9 -2105 -11 -52 -2 -167 -7 -255 -10 -88 -3 -185
-10 -215 -15 -30 -5 -75 -12 -100 -15 -25 -3 -52 -8 -60 -10 -8 -2 -31 -6 -50
-9 -74 -11 -277 -48 -320 -58 -25 -5 -58 -12 -75 -14 -16 -3 -113 -27 -215
-54 -186 -50 -286 -74 -349 -85 -19 -3 -37 -8 -40 -10 -4 -2 -27 -6 -51 -10
-25 -3 -52 -8 -60 -10 -8 -3 -33 -7 -55 -10 -22 -3 -49 -7 -60 -9 -11 -3 -28
-5 -37 -5 -10 -1 -18 -6 -18 -12 0 -5 3 -8 7 -6 5 3 31 1 60 -3 49 -8 106 -15
213 -27 25 -2 191 -6 370 -8 315 -3 451 -8 650 -22 114 -8 424 -8 605 0 349
17 629 21 1305 21 404 -1 839 -4 965 -8 127 -3 300 -9 385 -11 85 -3 229 -7
320 -10 312 -9 525 -15 685 -20 293 -9 590 -17 610 -15 11 1 25 1 30 1 652
-22 2406 -20 2965 4 47 2 155 6 240 10 85 3 180 8 210 10 30 2 109 7 175 10
66 4 152 8 190 11 39 2 120 6 180 9 61 2 110 5 110 6 0 1 375 10 615 13 129 2
253 6 275 9 22 3 69 9 105 12 94 9 154 15 260 30 19 2 60 7 91 10 31 3 65 7
75 9 11 2 46 7 79 11 32 3 62 8 66 11 4 2 23 6 43 8 20 3 53 8 73 12 65 11 70
12 115 19 93 13 318 28 430 29 l76 1 4 33 c5 40 -9 53 -18 18 -3 -14 -11 -23
-17 -21 -7 3 -23 7 -37 9 -14 3 -43 10 -65 16 -22 6 -47 12 -55 14 -144 37
-358 67 -580 81 -41 3 -88 7 -105 9 -52 6 -139 17 -175 22 -19 3 -55 7 -80 9
-25 2 -58 6 -75 9 -16 2 -55 7 -85 10 -30 4 -71 9 -90 11 -118 16 -170 18
-403 19 -142 1 -259 1 -260 0z"/>
</g>
</svg>
