<svg xmlns="http://www.w3.org/2000/svg" viewBox="0 0 54.16 23.18" xmlns:xlink='http://www.w3.org/1999/xlink' id='svg'><path d="M40.31 5.71A47.8 47.8 0 0028 4.05a46.38 46.38 0 00-7.71.62L13.46 0H0l5.81 6.19h8.45A22 22 0 007.5 9.7v3.78A24.33 24.33 0 0014.43 17H5.81L0 23.18h13.46l6.81-4.69a44 44 0 007.68.65 48.22 48.22 0 0012.36-1.67 10.7 10.7 0 01-1.92-5.87 10.66 10.66 0 011.92-5.89zm3.42 1.04a7.87 7.87 0 00-2 4.84 7.79 7.79 0 002 4.84 48.43 48.43 0 0010.42-4.84 48.38 48.38 0 00-10.42-4.84z"/></svg>