<svg xmlns="http://www.w3.org/2000/svg" viewBox="0 0 66 100.8" xmlns:xlink='http://www.w3.org/1999/xlink' id='svg'><path d="M56.33 9.23a34.09 34.09 0 00-46.66 0 30.48 30.48 0 000 44.54S33 75.6 33 100.8c0-25.2 23.34-47 23.34-47a30.47 30.47 0 00-.01-44.57z" fill="#fff"/><path d="M47 45.52c-.64-3.27.13-6.94 0-10.28 0-3.76-.65-7.49-.6-11.24 0-3 .54-6.17-.51-9.09.07-.33.14-.66.2-1 .27-1.47-4.58-.69-5.34.65-.48.39-.72.86-.52 1.33.05.13.1.25.14.37a109.92 109.92 0 01-3.67 13.17c-.56 1.67-1.24 3.29-1.81 5a48.06 48.06 0 01-2.3-4.73c-1.93-4.8-3.66-9.66-6-14.28.27-2.14-4.48-1.92-5.42 0-1.13 2.37-1 4.76-.61 7.3a64.36 64.36 0 01.53 8.55c.07 5.57.5 11.12.58 16.69a1.4 1.4 0 00-.12 1.92 3.9 3.9 0 00.8.77c1.26 1 4.9.15 4.89-1.78 0-5.77-.44-11.53-.59-17.3v-1.69l.24.61A46.5 46.5 0 0029.91 37a30.27 30.27 0 012.52 6.55 1.08 1.08 0 00-.33 1c-.05.25.1.41.35.5.9.77 2.58.38 3.52 0a8.31 8.31 0 001.15-.59c.49-.3 1.24-1 1-1.62l-.12-.42a34.24 34.24 0 001.35-5.5 34.43 34.43 0 011.82-5.79l.21 2.6c.29 3.57.05 7.1 0 10.67a16.59 16.59 0 00.31 3.45 14.36 14.36 0 01.39 2.64 1.09 1.09 0 00.54 2 4.67 4.67 0 003.88-1c1.71-1.58.91-4.01.5-5.97z" fill="#6bc6b3"/></svg>