<svg xmlns="http://www.w3.org/2000/svg" xmlns:xlink="http://www.w3.org/1999/xlink"><symbol id="icon-1" viewBox="0 0 31.97 37.3"><path d="M16 37.3a16 16 0 0016-16 16 16 0 00-16 16zM4.63 16.43a4.44 4.44 0 007 3.66v.34a4.45 4.45 0 008.89 0v-.34a4.37 4.37 0 002.51.78 4.43 4.43 0 001.9-8.44 4.43 4.43 0 10-4.41-7.65v-.34a4.45 4.45 0 00-8.89 0v.34A4.37 4.37 0 009.07 4a4.43 4.43 0 00-1.9 8.43 4.42 4.42 0 00-2.54 4zM16 8a4.44 4.44 0 11-4.45 4.44A4.44 4.44 0 0116 8zM0 21.31a16 16 0 0016 16 16 16 0 00-16-16z"/></symbol><symbol id="icon-2" viewBox="0 0 46.58 27.33"><path d="M42.67 0H3.9A3.91 3.91 0 000 3.9v19.53a3.91 3.91 0 003.9 3.9h38.77a3.91 3.91 0 003.91-3.9V3.9A3.91 3.91 0 0042.67 0zM3 25V2.72h40.23V25z"/><path d="M6.93 21.05h32.39V6.62H6.93zM23.29 8.52A5.32 5.32 0 1118 13.83a5.31 5.31 0 015.29-5.31z"/></symbol><symbol id="icon-3" viewBox="0 0 33.05 27.86"><path d="M33.05 8.74a8.74 8.74 0 00-16.53-3.95A8.73 8.73 0 000 8.74c0 9.12 14.66 19.12 16.52 19.12s16.53-9.95 16.53-19.12z"/></symbol><symbol id="icon-4" viewBox="0 0 34.37 34.37"><path d="M.29 14.07a17.11 17.11 0 000 6.3l4.12-3.21zM24.4 1.59A17.2 17.2 0 009.15 2l7.51 5.63zm9.5 11.58l-4.81 3.75 4.91 3.7a17.34 17.34 0 00-.1-7.45zM9.21 32.41a17.22 17.22 0 0015.73.12l-8.1-6.06zm-1.3-17.98L1.68 9.77a17.18 17.18 0 00-.82 2.05l5.3 4zM18.59 25.1l8.34 6.24c.28-.19.55-.39.82-.6s.62-.5.92-.77l-8.33-6.23zm-7.18-13.39L4 6.16a19 19 0 00-1.27 1.72l6.93 5.19zm10.68 10.67l8.09 6.05a15 15 0 001.3-1.7L23.84 21zM14.91 9L7.2 3.2l-.58.43c-.39.31-.77.63-1.13 1l7.67 5.74zm10.68 10.65l7 5.22a17.15 17.15 0 00.86-2l-6.08-4.55zm.86-16.94L.88 22.63a17.13 17.13 0 00.84 2.06L28.24 4a16.07 16.07 0 00-1.79-1.29zm4.29 3.91c-.3-.38-.61-.75-.94-1.1l-27 21.05c.26.4.54.79.84 1.18l.43.53 27.1-21.1c-.17-.18-.28-.37-.43-.56zM32.3 9L5.55 29.84a18.44 18.44 0 001.71 1.38L33.22 11a17 17 0 00-.92-2z"/></symbol><symbol id="icon-5" viewBox="0 0 54.16 23.18"><path d="M40.31 5.71A47.8 47.8 0 0028 4.05a46.38 46.38 0 00-7.71.62L13.46 0H0l5.81 6.19h8.45A22 22 0 007.5 9.7v3.78A24.33 24.33 0 0014.43 17H5.81L0 23.18h13.46l6.81-4.69a44 44 0 007.68.65 48.22 48.22 0 0012.36-1.67 10.7 10.7 0 01-1.92-5.87 10.66 10.66 0 011.92-5.89zm3.42 1.04a7.87 7.87 0 00-2 4.84 7.79 7.79 0 002 4.84 48.43 48.43 0 0010.42-4.84 48.38 48.38 0 00-10.42-4.84z"/></symbol><symbol id="icon-6" viewBox="0 0 32.67 32.49"><path d="M2.89 32.49H15.4V18.58H2.89zM31.08 8.87h-7.34a10.81 10.81 0 001.4-.87 5.06 5.06 0 002.42-4 3.87 3.87 0 00-1.36-2.9 4.61 4.61 0 00-3-1.12 6 6 0 00-3.32 1.07 10.62 10.62 0 00-3.42 4.07l-.12.23a11.9 11.9 0 00-1-1.79 9.74 9.74 0 00-2.49-2.51A6 6 0 009.46 0a4.59 4.59 0 00-3.15 1.3A4.31 4.31 0 004.9 4.43a4 4 0 00.65 2.19 6.53 6.53 0 002.63 2.25H1.59A1.59 1.59 0 000 10.46v5.89h15.4V8.87h1.87v7.48h15.4v-5.89a1.59 1.59 0 00-1.59-1.59M8.71 6.53A3.63 3.63 0 017.5 5.39a1.75 1.75 0 01-.3-1A2.09 2.09 0 017.89 3a2.36 2.36 0 011.56-.7 3.68 3.68 0 012 .68 8.41 8.41 0 012.65 3.19 10.64 10.64 0 01.9 2.09 14.9 14.9 0 01-6.29-1.73M19.25 4.9A7.36 7.36 0 0121.14 3a3.69 3.69 0 012.05-.68 2.32 2.32 0 011.5.55A1.58 1.58 0 0125.26 4c0 .51-.27 1.26-1.47 2.13a15.74 15.74 0 01-6.12 2.27 10.6 10.6 0 011.58-3.5m-2 27.59h12.53V18.58H17.27z"/></symbol><symbol id="icon-academy-logo" viewBox="0 0 154.38 195.33"><path d="M78 .59L77.19.5.5 8.54v140.57l76.69 45.63 76.69-45.63V8.54zm65.85 142.82l-66.66 39.66-66.66-39.66V85.79l66.38 39.51.11 7.16-45.54-27.1-.06 7 45.71 27.47.11 7.35L31.54 120l-.06 7 45.71 27.47 46.15-27.61V97.1l20.56-12.28zm0-66.06l-18.29 10.74-8.42 5L77 69.17l-.06 7 34.31 20.41-.3.18-.74.43-4.88 2.81L77 83.16l-.06 7 22.36 13.3-5.3 3.48-.12.07L77 97.06l-.06 7L88 110.54l-11.29 6.78-66-39.26 66.11-39.75zm0-7l-67-39.51-66.32 39.47V17.58l66.66-7 66.66 7z"/></symbol><symbol id="icon-cart" viewBox="0 0 20.29 18.85"><path d="M19.54 7.23h-3.15L13 .41a.75.75 0 00-1-.33.76.76 0 00-.34 1l3.08 6.14H5.58l3.07-6.13a.75.75 0 00-.34-1 .74.74 0 00-1 .33L3.9 7.23H.75a.75.75 0 000 1.5h.16l.85 3a.76.76 0 00-.31.59.74.74 0 00.69.74l1.66 5.8h12.7l1.65-5.8a.73.73 0 00.38-1.33l.86-3h.15a.75.75 0 000-1.5zm-4.18 10.12H4.93l-1.22-4.29h12.88zM17 11.56H3.28l-.81-2.83h15.36z"/></symbol><symbol id="icon-checkbox" viewBox="0 0 21.7 16.09"><path d="M21.4.29a1 1 0 00-1.4 0L6.61 13.68l-4.9-4.9a1 1 0 00-1.42 0 1 1 0 000 1.41L5.9 15.8a1 1 0 00.71.29 1 1 0 00.7-.29L21.4 1.71a1 1 0 000-1.42z"/></symbol><symbol id="icon-facebook" viewBox="0 0 14.96 27.72"><path d="M11.66 5.19a6.63 6.63 0 002.68-.3 8 8 0 00.62-3c-.19 0-.06-.33-.21-.4s-.27-.19-.3-.39c-.28-.17-.46-.43-.73-.6L11.56 0A13.35 13.35 0 009 .11 6.62 6.62 0 003.72 2.5c0 .08 0 .2-.1.2-.62 1.59-.13 3.62-.21 5.58.1.44.11 1 .21 1.4a20.24 20.24 0 01-3.41.5C-.1 10.5 0 11.26 0 11.87a14.76 14.76 0 00.41 1.59 3.28 3.28 0 00.83.5c.06 0 .07.08.1.1.5.27 1.45 0 2.27.1-.14 2 .25 3.92 0 5.68 0 .33.29.38.2.8A8.4 8.4 0 004 23.33a2.55 2.55 0 00-.41 1.79c.12 0 .11.16.1.3-.07.47.64.18.52.7.16.46-.43.18-.42.5v.89a5.74 5.74 0 002.27.2c.91-.42 2.19-.48 2.79-1.19a1.29 1.29 0 001.23-.2c0-.32.28-.34.21-.7s-.17-.5-.1-.9v-2.89c-.21-2.29-.05-4.93-.31-7.17a9.38 9.38 0 002.58-.4 5 5 0 00.54-1.89 1.59 1.59 0 00.21-1c.19-.21.07-.73.1-1.1-.14-.59-.17-1.3-.82-1.39-.89-.24-2.05.59-3 .3 0-1.14-.3-2.34 0-3.39.75-.18 1.45-.4 2.17-.6zM7.84 10a4 4 0 00.42.69c.08 0 .2 0 .2.1a10.2 10.2 0 003.1-.3A7.44 7.44 0 0111 13a9.64 9.64 0 01-2 .19c-.27.17-.37.51-.62.7-.05.44.15.5 0 .8-.2.14-.05.61-.2.8V17c.08.28-.15.26-.1.5v3.49c-.09.28.14.25.1.5v3c.06.27-.13.8.1.9-.07.37-.41 0-.82.1a7.8 7.8 0 01-1.55.4 2.74 2.74 0 00.31-1.1c0-.38-.37-.31-.52-.49.2-.65.57-1.12.73-1.8.19-.51.71-1.29.31-1.79-.53-.11-.53.29-.83.4 0 .07 0 .19-.1.2s0 .19-.11.2-.15.06 0 0 0-.2.11-.2 0-.2.1-.2v-.3a5.85 5.85 0 00.83-2 5 5 0 00.41-1 1.3 1.3 0 00.1-1.2 1 1 0 00-.93.7c-.32-.19.16-.43.11-.7.13-.23.17-.56.31-.79.2-.42.56-1.31 0-1.6a.67.67 0 00-.73.5 1.41 1.41 0 00-.51.7c-.38-.07-.15-.73-.21-1.1s.12-.9 0-1.2c-.56-.79-2-.1-3.2-.29a2.32 2.32 0 01-.1-1.2c1.05-.09 2.48.2 3.2-.2 0-.08 0-.2.1-.2.09-.72-.27-1-.51-1.39a17 17 0 00.1-3c.23-.14.33-.42.51-.6.12-1 .68-1.48.73-2.49-.28 0-.61-.06-.62.2-.3-.12-.38.48-.52.2-.11-.54.25-.63.31-1 .6-.42 1.21-.82 1.86-1.2 1.74-.24 4.65-.44 6.08.2 0 .62-.28.86-.2 1.5h-1.47a29.11 29.11 0 00-3 1c-.24.06-.28.33-.52.39a5.08 5.08 0 01-.31 1c-.07 1.39.14 2.55.11 3.96z"/></symbol><symbol id="icon-instagram" viewBox="0 0 21.77 21.33"><path d="M21.77 12.15c0-2.4-.35-4.79-.31-7.14 0-.79-.08-1.53-.15-2.28a5.64 5.64 0 01-.15-1.06c-.26-.17-.22-.67-.46-.84A7.66 7.66 0 0019 .61c-.66 0-1.26-.12-1.9-.16-1.94-.1-4-.07-6-.07A43.92 43.92 0 015.37 0h-2.2c-.1 0-.11.1-.23.08a8.57 8.57 0 00-1.6.3 2.8 2.8 0 01-.68.3c-.14.2-.51.15-.61.38s.19.45 0 .61v.91c.18.13 0 .58.08.84v1c0 1.28.13 2.4.08 3.72a39 39 0 01.07 9.42 14.73 14.73 0 01.46 1.74 7 7 0 00.68 1.52 6.47 6.47 0 001.9.23 4.13 4.13 0 001.14.3c2.84-.21 5.49-.15 8.42-.22a35 35 0 008.28-.23c.19-.14.13-.53.23-.76-.06-.39.2-.45.22-.76.14-2.38.17-4.81.16-7.23zm-13-6.23a9.45 9.45 0 012.43-.3 10.57 10.57 0 011.9.45c.12.19-.24.55.15.69v.07c.06 0 .15 0 .16.08a1.9 1.9 0 011.06.38c.45 0 .53.47 1.14.38a2.13 2.13 0 00-.08.83 11.56 11.56 0 01.3 4.25 2.06 2.06 0 00-.3.69c-.31.32-.48.78-.83 1.06a1 1 0 01-.46.53c-.12.22-.21.45-.46.53s-.57 0-.83-.07a3.43 3.43 0 00-1.21.6c-.82-.09-1.65-.17-2.43-.3a2 2 0 00-.84-.3 2 2 0 00-.83-.49c-.1-.13-.33-.12-.45-.23s-.23-.22-.46-.23c-.11-.41-.44-.61-.53-1.06a5.42 5.42 0 01-.45-1.21 13.09 13.09 0 01.38-3.8c.34-.59.78-1.09 1.13-1.67.25 0 .37-.09.38-.3.31 0 .44-.07.69-.08s.26-.36.45-.5zM7.11 3.19A3.54 3.54 0 017 2.13c0-.29.28-.28.3-.54 0-.07-.09-.05-.15-.07.13-.15.7-.1.83 0 .14.53-.35.45-.53.68 0 .17.33 0 .46.08 0 .85-.06 1.49 0 2.2h-.42c0 .23.23.23.46.23-.06.28.09.36.07.6-.22.16-.71.05-1.06.08-.1-.59.24-1.39.15-2.2zm-.68-1.6c.09 0 .13 0 .15.08.18.25 0 .68-.07.91-.18-.18-.03-.68-.08-.99zm.15 1.83c-.13-.07-.17-.24-.15-.46.13.04.17.24.15.46zm0 1.36c-.06.14-.08 0-.07-.15s.08.05.07.15zM6.43 5c.18 0 .08.22.23.23 0 .19-.29.18-.38.07s.11-.18.15-.3zM4.08 3.79c0-.1 0-.21-.08-.22-.07-.74.13-1.42 0-2 .25-.15.77 0 1.14-.07v1.16a.49.49 0 01-.38.07c0 .28.32.13.38.31a9.25 9.25 0 00.15 2.42c-.56 0-.9.11-1.44.08.1-.61 0-1.43.53-1.59-.01-.14-.26-.05-.3-.16zm-.53 0c-.21 0-.22-.53-.08-.6.33 0 .25.5.08.6zm-.16 1a3.25 3.25 0 00.08-.68c.23 0 .26.76-.08.67zm.23-2.05c-.26.06-.27-.26-.15-.38s.27.26.15.37zm0-1.14c0 .16-.05.2-.07.31-.18 0-.09-.22-.23-.23.02-.11.19-.07.3-.09zm-.23 3.71c.15 0 .11.35-.07.23a.32.32 0 00.07-.23zm-.68-3.72c0 .26-.44.32-.38 0zm-1 .08c0 .22-.32.18-.38.38-.2-.17.1-.47.39-.38zm-.45.76c.22-.21.45-.41.68-.61 0-.12.07-.13.08-.23h.23c.1.38-.26.3-.31.53s-.07.14-.07.23a4.44 4.44 0 01.07 1c-.27 0-.27.28-.61.23.04-.44-.12-.69-.06-1.15zm.07 3.26V4.1c.2-.18.4-.36.61-.53.3.49.18 1.39.46 1.89a7 7 0 01-1.06.23zm18.23 11.09a20.1 20.1 0 01-.37 2.81c-2.89.12-6 0-8.89.15-.2 0-.27 0-.23-.23-.25 0-.25.25-.53.23.2-.34.44-.9.15-1.29-.79 0-.79.82-1.13 1.29-.69 0-1.14.13-1.83.07.18-.7.75-1 .91-1.74-.39-.55-1 .14-1.21.45-.2.48-.56.81-.76 1.29h-1c.24-.46.49-.92.76-1.36s.63-.74.69-1.37c-.16-.28-.42 0-.69 0-.12.18-.27.34-.38.53a9.27 9.27 0 00-.68 1.14c-.18.21-.34 0-.53.23-.39.27-.58.73-1 1-.17-.06 0-.36.15-.38.05-.18-.09-.55.08-.61a2.28 2.28 0 01.38-.91c.12-.74.52-1.2.68-1.9-.56.1-.67.64-1 1a6.61 6.61 0 00-.69 1.29c-.17-.13 0-.58-.07-.84.12-.58.29-1.12.38-1.74A2.59 2.59 0 003 15a.71.71 0 00-.07-.76.53.53 0 00-.46.31c-.19 0-.19.5-.3.3-.05-2.59-.45-4.81-.46-7.44 0-.33-.18-.42-.22-.68 1.62 0 3.12.09 4.78.22a2.85 2.85 0 01-.27.41 2 2 0 00-.37.31A12.56 12.56 0 005 13.82a4.48 4.48 0 001 1.44c.91.48 1.64 1.15 2.51 1.67a14.15 14.15 0 005.54 0 4.55 4.55 0 00.69-.38c1.36-1.24 2.75-2.46 3-4.86v-1.37a5 5 0 00-1.75-3.64c.33-.22 1.1 0 1.67.08h.68a7.78 7.78 0 011.45 0c.14.18.11.54.22.76-.06 1.68-.19 3.3-.15 5.08.1.46.13 1 .23 1.44a16 16 0 01-.53 2.74zm.38-11.16c-.64-.12-1.23-.29-1.89-.38.07-.34.79 0 1-.23.39-.22.3-.92.31-1.52a5.06 5.06 0 00.07-1.06C19 1.48 17.63 2 16.53 2a6 6 0 00-.31 2.66c.17.49 1 .29 1.52.46-.14.33-.69 0-1 .07s-.7 0-1-.15c-2.29.08-4.29 0-6.53.15a17 17 0 00-.08-3.64h3.12c-.35.36-.92.5-1.29.83a3.13 3.13 0 00-1.14.91c.25.14.53-.24.76-.38s.47-.38.83-.45a5.72 5.72 0 011.67-.91 3.81 3.81 0 011 .07c1.28 0 2.45.13 3.79.08a13.05 13.05 0 012 .3 8.08 8.08 0 01.3.91 25.93 25.93 0 01-.23 2.71zM14.1 1.9c.11 0 0-.09 0 0zm0 0a3.27 3.27 0 00-1.37.68 3.39 3.39 0 001.37-.68zm1.06.6c.11 0 0-.09 0 0zm-1.74.92a6 6 0 001.74-.92c-.44 0-.59.32-1 .38-.16.22-.59.26-.74.54zm-.69-.84c-.11 0 0 .09 0 0zm-.68.61c.11 0 0-.09 0 0zm-.05.07c.07 0 .07 0 .08-.07s-.08.03-.08.07zm-.07.08c.06 0 .07 0 .07-.08s-.1.03-.1.08zm-.87.66a2.1 2.1 0 00.84-.61 2 2 0 00-.84.61zm2.28 1c.53 0 .75-.41 1.21-.53.29-.3.79-.38 1-.76-.56 0-.76.4-1.21.53-.34.23-.77.35-1 .69zm-2.28-1c-.31-.08 0 .22 0 0zm-.53.38s.11 0 .08-.08-.12-.01-.08.03zm2.81.6c-.11.05 0 .1 0 0zM12.2 6.76c-.22-.24-.68-.24-1-.38a5.13 5.13 0 00-1.74.23l-.91.45c-.27.16-.45.42-.76.53s-.35.51-.69.61c0 .22-.17.28-.3.38s-.09.31-.23.38 0 .29-.07.3a18.63 18.63 0 00.68 4.18c.29.62 1 .84 1.44 1.29a6.59 6.59 0 002.13.53 3.21 3.21 0 01.91-.08 5.05 5.05 0 002.81-1.44 1.56 1.56 0 01.45-.68c-.25-.67.3-1.1.46-1.6a8.45 8.45 0 00-.61-3.41c-.25-.58-.92-.75-1.36-1.14-.06 0-.16 0-.16-.08a1.33 1.33 0 00-1.05-.07zm-3.42 4.32c-.11-.06-.11-.24-.15-.38.26-.07.12.24.15.38zm.08.31c0-.12.08 0 .08.07s-.08.01-.08-.07zm.46-2.05c0-.09.07-.05.07 0s-.07.04-.07 0zM11 7.21c-.21.26 0 .58.07.84-.31-.05-.58-.89-.07-.84zm.38 4s.05-.1.07-.08-.06.05-.08.03zm.74 2.79c0-.11.07 0 .16 0a.08.08 0 01-.16 0zm2.21-2.58c-.24-.05-.15.21-.38.16a1.63 1.63 0 01.22-.46c.14.06.18.17.16.34zm-1.14-3.75a2.45 2.45 0 01.6.38 2.31 2.31 0 00.38.53 21.7 21.7 0 01.16 2.35c-.26.1-.44.27-.69.38a4.35 4.35 0 01-1.89-.45l-.54-.76V9a4.54 4.54 0 00.46-.6c.23-.13.51-.2.45-.61a.32.32 0 01-.07-.23c.16 0 .24.16.38.23.32.05.41-.17.76-.12z"/></symbol><symbol id="icon-mail" viewBox="0 0 32 21"><path d="M28 0H4a4 4 0 00-4 4v13a4 4 0 004 4h24a4 4 0 004-4V4a4 4 0 00-4-4zM2 5.25l7 5.25-7 5.25zM30 17a2 2 0 01-2 2H4a2 2 0 01-2-2l7.83-5.88 4.37 3.28a3 3 0 003.6 0l4.37-3.28L30 17zm0-1.25l-7-5.25 7-5.25zM17.2 13.6a2 2 0 01-2.4 0l-4.14-3.1-.83-.62L2 4a2 2 0 012-2h24a2 2 0 012 2z"/></symbol><symbol id="icon-phone" viewBox="0 0 24.83 24.33"><path d="M17.32 24.33h-1.11A17.19 17.19 0 015.1 18.56 19.34 19.34 0 010 6.82V5.46a3.35 3.35 0 011.07-2.09 4.52 4.52 0 012.52-1.55 3.18 3.18 0 012.23 1.07 7.51 7.51 0 01.78 2.37A8.81 8.81 0 017.08 8c-.18 1.2-1.76 1.7-2.23 2.57a16.68 16.68 0 007.47 8.35c.85-.47 1.6-1.87 2.77-1.89a4.77 4.77 0 011.4.34c.48.14.9.32 1.32.48.7.27 2 .62 2.37 1.21a3.46 3.46 0 01.58 2.23c-.19 1.22-2.22 2.59-3.44 3.04zm-4.79-22.8A10.77 10.77 0 0123.3 12.3h1.53A12.3 12.3 0 0012.53 0z"/><path d="M12.53 9.33v1.55A1.43 1.43 0 0114 12.3h1.5a3 3 0 00-2.97-2.97zm0-3.08a6.05 6.05 0 016 6.05h1.59a7.64 7.64 0 00-7.64-7.64z"/></symbol><symbol id="icon-search" viewBox="0 0 17.6 17.6"><path d="M17.27 15.73l-3.42-3.42A7.62 7.62 0 0015.4 7.7a7.74 7.74 0 10-3.09 6.15l3.42 3.42a1 1 0 00.77.33 1.1 1.1 0 001.1-1.1 1 1 0 00-.33-.77zM2.2 7.7a5.5 5.5 0 115.5 5.5 5.5 5.5 0 01-5.5-5.5z"/></symbol><symbol id="icon-twitter" viewBox="0 0 23.49 20.17"><path d="M23.45 4.08c-.22-.36-.91-.27-1.4-.37h-1.12c.15-.35.35-.64.52-1a5.23 5.23 0 00.23-1.26c.12-.17.17-.42.29-.59s.24-.48.08-.67-.3-.25-.6-.22a.48.48 0 00-.22.15c-.45.43-.78 1-1.26 1.4h-.07c-.01 0 0 .05-.08.08s-.26.15-.37.22a2.74 2.74 0 01-.89.52A6 6 0 0016.71 2a6.37 6.37 0 00-3 .74 7.41 7.41 0 00-2.15 1.63c0 .32-.34.4-.37.74 0 0 0 .09-.07.08a1.12 1.12 0 01-.08.51c0 .14.2.43 0 .52a7.18 7.18 0 01-2.14-1 10.1 10.1 0 01-2.12-1.06A6.09 6.09 0 015 2.82c-.21-.31-.54-.49-.66-.89-.34-.16-.18-.93-.75-.88-.31-.05-.34.2-.44.37s-.36.23-.37.51c0 .05 0 .09-.07.08a17.64 17.64 0 00-.52 3.26 3.2 3.2 0 00.59 1 1.1 1.1 0 00-.89.52 3.73 3.73 0 00.74 2.29 3 3 0 00.59 1c0 .23.21.28.3.44s.12.13.15.22.29.18.07.22c-.41.14-1 .07-1.26.38a1.91 1.91 0 000 1.11c0 .23.29.26.3.52.5.41 1.08.74 1.63 1.11a16.36 16.36 0 001.85.37 1.46 1.46 0 01-.59.74 19.92 19.92 0 01-2.74.74 15 15 0 01-1.56.22c-.33.13-.85.08-1.11.22s-.1.1-.22.23a.71.71 0 00.44.89c0 .25.22.27.37.37a.83.83 0 00.45.37 10.58 10.58 0 001.92 1.11c.83.18 1.65.37 2.52.52s1.9.12 2.82.22h1a10 10 0 001.85.07c.1-.1.33-.07.52-.07a9.37 9.37 0 001.63-.74c.58-.24 1-.64 1.56-.89a10.16 10.16 0 002.52-2.37 1.67 1.67 0 00.44-.74c.27-.16.39-.46.6-.67a9.82 9.82 0 001-1.41c.32-.49.58-1 .89-1.55 0-.41.31-.49.3-.89.19-.23.18-.67.37-.89a1.37 1.37 0 01.08-.6 12.33 12.33 0 00-.3-3.4 5.93 5.93 0 001.63-.6c.52-.17.99-.57.8-1.25zM20 8.16a4.7 4.7 0 01-1 2c.06.38-.11.54-.08.89a4.88 4.88 0 00-.37 1c-.2.26-.33.6-.52.89-.36.54-.77 1-1.18 1.55A18.83 18.83 0 0115.52 16c-.42.5-.94.89-1.4 1.34a4.85 4.85 0 00-1.26.66 4.11 4.11 0 00-.67.3c-.18.15-.5.15-.67.3a25.2 25.2 0 01-3.52.16 25.49 25.49 0 01-3-.38 11.73 11.73 0 01-2.3-1c.15-.24.64-.16 1-.22 0-.17.4 0 .45-.15.26.06.28-.11.52-.08a9.44 9.44 0 001.7-.59c.28-.14.41-.43.67-.59a.74.74 0 01.22-.45 2 2 0 00.15-.81c.11-.21.3-.34.3-.67-.08-.15-.13-.32-.3-.37s-.38-.07-.45-.22a1.34 1.34 0 01-.59-.08c-.15 0-.48.09-.52-.07A3.57 3.57 0 014 12.34c.43-.26 1-.35 1.33-.74.52-.08 1.06-.13 1.12-.67 0-.72-.77-.66-1.34-.81a12.69 12.69 0 01-1.89-2.55c.24-.16.57-.23.74-.45.46.06.54-.25.67-.52 0-.49-.33-.6-.59-.81a3.38 3.38 0 01-.67-.74 18.08 18.08 0 01.08-2.37c.06 0 .07 0 .07.07.23.44.56.77.82 1.18a8.76 8.76 0 001.55 1.12c.45.41 1.11.62 1.56 1a17 17 0 011.7.95c.67.2 1.06.68 2 .6l.6-.3c.25-.46-.06-1.08.14-1.63a4.42 4.42 0 011.26-1.48 9.54 9.54 0 00.85-.55 5.18 5.18 0 001-.37 6.34 6.34 0 001-.15h1.26a7.43 7.43 0 00.74.15 1.82 1.82 0 00.67.37 4.45 4.45 0 011.4 3A12.13 12.13 0 0020 8.16zm.3-5.63c-.13.34-.23.7-.59.81 0-.1-.12-.12-.15-.22s.21-.19.3-.3.24-.24.44-.29c.03-.09.15-.05.04 0zm-5.48 3a1.44 1.44 0 00.52.37.72.72 0 00.59.37c0-.15.35 0 .37-.23.17 0 .17-.22.3-.29a2.42 2.42 0 00-.37-1.34.94.94 0 00-1.37 1.16z"/></symbol></svg>